name ./resultDataOpenSim/trcMotMarkerGrf/sub10/grf-15-08.mot
datacolumns 19
datarows 15
range 0.50400000 0.56000000
endheader

                time	     ground_force_vx	     ground_force_vy	     ground_force_vz	     ground_force_px	     ground_force_py	     ground_force_pz	   l_ground_force_vx	   l_ground_force_vy	   l_ground_force_vz	   l_ground_force_px	   l_ground_force_py	   l_ground_force_pz	     ground_torque_x	     ground_torque_y	     ground_torque_z	   l_ground_torque_x	   l_ground_torque_y	   l_ground_torque_z	
          0.50400000	         22.62485855	        526.43040538	         -5.70623844	         -0.73935063	          0.00000000	          0.03547326	          0.00000000	          0.00000000	          0.00000000	          0.00000000	          0.00000000	          0.00000000	          0.00000000	          3.31595879	          0.00000000	          0.00000000	          0.00000000	          0.00000000	
          0.50800000	         25.52869947	        526.61096033	         -5.51215103	         -0.73855899	          0.00000000	          0.03564619	          0.00000000	          0.00000000	          0.00000000	          0.00000000	          0.00000000	          0.00000000	          0.00000000	          3.45843987	          0.00000000	          0.00000000	          0.00000000	          0.00000000	
          0.51200000	         28.97788030	        526.94504681	         -5.93880177	         -0.73788692	          0.00000000	          0.03588449	          0.00000000	          0.00000000	          0.00000000	          0.00000000	          0.00000000	          0.00000000	          0.00000000	          3.54980582	          0.00000000	          0.00000000	          0.00000000	          0.00000000	
          0.51600000	         32.78249577	        527.42864775	         -7.06692424	         -0.73730124	          0.00000000	          0.03619060	          0.00000000	          0.00000000	          0.00000000	          0.00000000	          0.00000000	          0.00000000	          0.00000000	          3.58360103	          0.00000000	          0.00000000	          0.00000000	          0.00000000	
          0.52000000	         36.68220800	        528.04971294	         -8.86025070	         -0.73676400	          0.00000000	          0.03655601	          0.00000000	          0.00000000	          0.00000000	          0.00000000	          0.00000000	          0.00000000	          0.00000000	          3.56589338	          0.00000000	          0.00000000	          0.00000000	          0.00000000	
          0.52400000	         40.41961021	        528.78954630	        -11.17578020	         -0.73624939	          0.00000000	          0.03696067	          0.00000000	          0.00000000	          0.00000000	          0.00000000	          0.00000000	          0.00000000	          0.00000000	          3.51359438	          0.00000000	          0.00000000	          0.00000000	          0.00000000	
          0.52800000	         43.80413781	        529.62741866	        -13.79555107	         -0.73574238	          0.00000000	          0.03738023	          0.00000000	          0.00000000	          0.00000000	          0.00000000	          0.00000000	          0.00000000	          0.00000000	          3.45038475	          0.00000000	          0.00000000	          0.00000000	          0.00000000	
          0.53200000	         46.75280068	        530.57156448	        -16.47094383	         -0.73522420	          0.00000000	          0.03779233	          0.00000000	          0.00000000	          0.00000000	          0.00000000	          0.00000000	          0.00000000	          0.00000000	          3.40134357	          0.00000000	          0.00000000	          0.00000000	          0.00000000	
          0.53600000	         49.29990557	        531.70299631	        -18.97118497	         -0.73467629	          0.00000000	          0.03817980	          0.00000000	          0.00000000	          0.00000000	          0.00000000	          0.00000000	          0.00000000	          0.00000000	          3.38751157	          0.00000000	          0.00000000	          0.00000000	          0.00000000	
          0.54000000	         51.57182514	        533.18851747	        -21.12716018	         -0.73409082	          0.00000000	          0.03852950	          0.00000000	          0.00000000	          0.00000000	          0.00000000	          0.00000000	          0.00000000	          0.00000000	          3.42152966	          0.00000000	          0.00000000	          0.00000000	          0.00000000	
          0.54400000	         53.73327624	        535.25242477	        -22.85991860	         -0.73346930	          0.00000000	          0.03883387	          0.00000000	          0.00000000	          0.00000000	          0.00000000	          0.00000000	          0.00000000	          0.00000000	          3.50525417	          0.00000000	          0.00000000	          0.00000000	          0.00000000	
          0.54800000	         55.92253128	        538.13045631	        -24.18652860	         -0.73280809	          0.00000000	          0.03909346	          0.00000000	          0.00000000	          0.00000000	          0.00000000	          0.00000000	          0.00000000	          0.00000000	          3.62987159	          0.00000000	          0.00000000	          0.00000000	          0.00000000	
          0.55200000	         58.19467157	        542.02753182	        -25.20166842	         -0.73207960	          0.00000000	          0.03931637	          0.00000000	          0.00000000	          0.00000000	          0.00000000	          0.00000000	          0.00000000	          0.00000000	          3.77848289	          0.00000000	          0.00000000	          0.00000000	          0.00000000	
          0.55600000	         60.48872988	        547.09377934	        -26.04291570	         -0.73124164	          0.00000000	          0.03950728	          0.00000000	          0.00000000	          0.00000000	          0.00000000	          0.00000000	          0.00000000	          0.00000000	          3.93045288	          0.00000000	          0.00000000	          0.00000000	          0.00000000	
          0.56000000	         62.63825024	        553.40618017	        -26.85730477	         -0.73027367	          0.00000000	          0.03965751	          0.00000000	          0.00000000	          0.00000000	          0.00000000	          0.00000000	          0.00000000	          0.00000000	          4.06626896	          0.00000000	          0.00000000	          0.00000000	          0.00000000	
